HIERARCHY
ROOT Hips
{
	OFFSET 0.000000 83.214638 0.000000
	CHANNELS 6 Xposition Yposition Zposition Xrotation Yrotation Zrotation
	JOINT Pelvis
	{
		OFFSET 0.000000 0.000000 0.000000
		CHANNELS 3 Xrotation Yrotation Zrotation
		JOINT LeftUpLeg
		{
			OFFSET 8.479700 -4.795502 -0.379100
			CHANNELS 3 Xrotation Yrotation Zrotation
			JOINT LeftLeg
			{
				OFFSET 0.024144 -32.555107 0.112900
				CHANNELS 3 Xrotation Yrotation Zrotation
				JOINT LeftFoot
				{
					OFFSET -0.024144 -32.638630 -3.012600
					CHANNELS 3 Xrotation Yrotation Zrotation
					JOINT LeftToeBase
					{
						OFFSET 0.970200 -13.225400 11.864200
						CHANNELS 3 Xrotation Yrotation Zrotation
						End Site
						{
							OFFSET 0.000000 12.319262 0.000000
						}
					}
					JOINT LFootTongue
					{
						OFFSET 1.142400 -1.059800 6.665200
						CHANNELS 3 Xrotation Yrotation Zrotation
						End Site
						{
							OFFSET 0.000000 12.319262 0.000000
						}
					}
				}
				JOINT LeftPantLeg
				{
					OFFSET 0.918482 -16.533964 -2.284700
					CHANNELS 3 Xrotation Yrotation Zrotation
					End Site
					{
						OFFSET 0.350399 24.744368 0.000000
					}
				}
			}
		}
		JOINT RightUpLeg
		{
			OFFSET -8.479700 -4.795502 -0.379100
			CHANNELS 3 Xrotation Yrotation Zrotation
			JOINT RightLeg
			{
				OFFSET -0.023144 -32.555092 0.112900
				CHANNELS 3 Xrotation Yrotation Zrotation
				JOINT RightFoot
				{
					OFFSET 0.023144 -32.638641 -3.012700
					CHANNELS 3 Xrotation Yrotation Zrotation
					JOINT RightToeBase
					{
						OFFSET -0.970200 -13.225400 11.864200
						CHANNELS 3 Xrotation Yrotation Zrotation
						End Site
						{
							OFFSET 0.000000 12.319244 0.000000
						}
					}
					JOINT RFootTongue
					{
						OFFSET -1.142200 -1.059800 6.665200
						CHANNELS 3 Xrotation Yrotation Zrotation
						End Site
						{
							OFFSET 0.000000 12.319243 0.000000
						}
					}
				}
				JOINT RightPantLeg
				{
					OFFSET -0.919482 -16.533978 -2.284800
					CHANNELS 3 Xrotation Yrotation Zrotation
					End Site
					{
						OFFSET -0.350400 24.744419 0.000000
					}
				}
			}
		}
	}
	JOINT Spine
	{
		OFFSET 0.000000 7.722000 1.166200
		CHANNELS 3 Xrotation Yrotation Zrotation
		JOINT Spine1
		{
			OFFSET 0.000000 12.024101 0.248800
			CHANNELS 3 Xrotation Yrotation Zrotation
			JOINT Spine2
			{
				OFFSET 0.000000 11.502998 -0.491200
				CHANNELS 3 Xrotation Yrotation Zrotation
				JOINT Neck
				{
					OFFSET 0.000000 18.430702 -3.123100
					CHANNELS 3 Xrotation Yrotation Zrotation
					JOINT Head
					{
						OFFSET 0.000000 9.051102 1.034000
						CHANNELS 3 Xrotation Yrotation Zrotation
						JOINT HairB
						{
							OFFSET 0.208400 24.786102 24.822300
							CHANNELS 3 Xrotation Yrotation Zrotation
							End Site
							{
								OFFSET 0.000000 32.263779 0.000000
							}
						}
						JOINT HairA
						{
							OFFSET -7.081100 24.428299 23.196600
							CHANNELS 3 Xrotation Yrotation Zrotation
							End Site
							{
								OFFSET 0.000000 32.263779 0.000000
							}
						}
						JOINT Hat
						{
							OFFSET 16.728800 15.048294 -15.439601
							CHANNELS 3 Xrotation Yrotation Zrotation
							End Site
							{
								OFFSET 0.000000 32.263779 0.000000
							}
						}
					}
				}
				JOINT LeftShoulder
				{
					OFFSET 6.197800 13.665199 -4.064700
					CHANNELS 3 Xrotation Yrotation Zrotation
					JOINT LeftArm
					{
						OFFSET 7.778100 -0.187103 -1.709300
						CHANNELS 3 Xrotation Yrotation Zrotation
						JOINT LeftForeArm
						{
							OFFSET 22.049376 0.000000 0.000000
							CHANNELS 3 Xrotation Yrotation Zrotation
							JOINT LeftHand
							{
								OFFSET 23.009392 0.000000 0.000000
								CHANNELS 3 Xrotation Yrotation Zrotation
								JOINT LeftHandThumb1
								{
									OFFSET 3.507191 -2.063065 3.133727
									CHANNELS 3 Xrotation Yrotation Zrotation
									JOINT LeftHandThumb2
									{
										OFFSET 3.101337 -1.790558 1.790558
										CHANNELS 3 Xrotation Yrotation Zrotation
										JOINT LeftHandThumb3
										{
											OFFSET 3.058640 -1.765907 1.765906
											CHANNELS 3 Xrotation Yrotation Zrotation
											End Site
											{
												OFFSET -0.415260 3.926476 -0.049563
											}
										}
									}
								}
								JOINT LeftHandIndex1
								{
									OFFSET 11.334419 -0.901459 3.706815
									CHANNELS 3 Xrotation Yrotation Zrotation
									JOINT LeftHandIndex2
									{
										OFFSET 3.283112 0.000000 0.000000
										CHANNELS 3 Xrotation Yrotation Zrotation
										JOINT LeftHandIndex3
										{
											OFFSET 3.323853 0.000000 0.000000
											CHANNELS 3 Xrotation Yrotation Zrotation
											End Site
											{
												OFFSET -1.135597 3.097809 0.402452
											}
										}
									}
								}
								JOINT LeftHandMiddle1
								{
									OFFSET 11.335861 0.000000 0.000000
									CHANNELS 3 Xrotation Yrotation Zrotation
									JOINT LeftHandMiddle2
									{
										OFFSET 3.410492 0.000000 0.000000
										CHANNELS 3 Xrotation Yrotation Zrotation
										JOINT LeftHandMiddle3
										{
											OFFSET 3.312172 0.000000 0.000000
											CHANNELS 3 Xrotation Yrotation Zrotation
											End Site
											{
												OFFSET -1.150200 3.080154 0.400270
											}
										}
									}
								}
								JOINT LeftHandRing1
								{
									OFFSET 11.514786 -0.013176 -3.003090
									CHANNELS 3 Xrotation Yrotation Zrotation
									JOINT LeftHandRing2
									{
										OFFSET 3.053307 0.000000 0.000000
										CHANNELS 3 Xrotation Yrotation Zrotation
										JOINT LeftHandRing3
										{
											OFFSET 3.295807 0.000000 0.000000
											CHANNELS 3 Xrotation Yrotation Zrotation
											End Site
											{
												OFFSET -1.281006 3.013344 0.375733
											}
										}
									}
								}
								JOINT LeftHandPinky1
								{
									OFFSET 10.518692 -0.960396 -5.730441
									CHANNELS 3 Xrotation Yrotation Zrotation
									JOINT LeftHandPinky2
									{
										OFFSET 2.861649 0.000000 0.000000
										CHANNELS 3 Xrotation Yrotation Zrotation
										JOINT LeftHandPinky3
										{
											OFFSET 2.863380 0.000000 0.000000
											CHANNELS 3 Xrotation Yrotation Zrotation
											End Site
											{
												OFFSET -0.843597 2.711159 0.369971
											}
										}
									}
								}
							}
							JOINT LSleeve
							{
								OFFSET 6.676277 -0.344902 -1.011730
								CHANNELS 3 Xrotation Yrotation Zrotation
								End Site
								{
									OFFSET 0.000000 14.885353 0.000000
								}
							}
						}
					}
				}
				JOINT RightShoulder
				{
					OFFSET -6.197800 13.665199 -4.064700
					CHANNELS 3 Xrotation Yrotation Zrotation
					JOINT RightArm
					{
						OFFSET -7.778100 -0.187103 -1.709300
						CHANNELS 3 Xrotation Yrotation Zrotation
						JOINT RightForeArm
						{
							OFFSET -22.049376 0.000000 0.000000
							CHANNELS 3 Xrotation Yrotation Zrotation
							JOINT RightHand
							{
								OFFSET -23.009392 0.000000 0.000000
								CHANNELS 3 Xrotation Yrotation Zrotation
								JOINT RightHandThumb1
								{
									OFFSET -3.507191 -2.063065 3.133727
									CHANNELS 3 Xrotation Yrotation Zrotation
									JOINT RightHandThumb2
									{
										OFFSET -3.101337 -1.790558 1.790558
										CHANNELS 3 Xrotation Yrotation Zrotation
										JOINT RightHandThumb3
										{
											OFFSET -3.058640 -1.765907 1.765906
											CHANNELS 3 Xrotation Yrotation Zrotation
											End Site
											{
												OFFSET 0.415260 3.926476 -0.049563
											}
										}
									}
								}
								JOINT RightHandIndex1
								{
									OFFSET -11.334419 -0.901459 3.706815
									CHANNELS 3 Xrotation Yrotation Zrotation
									JOINT RightHandIndex2
									{
										OFFSET -3.283112 0.000000 0.000000
										CHANNELS 3 Xrotation Yrotation Zrotation
										JOINT RightHandIndex3
										{
											OFFSET -3.323853 0.000000 0.000000
											CHANNELS 3 Xrotation Yrotation Zrotation
											End Site
											{
												OFFSET 1.135597 3.097809 0.402452
											}
										}
									}
								}
								JOINT RightHandMiddle1
								{
									OFFSET -11.335861 0.000000 0.000000
									CHANNELS 3 Xrotation Yrotation Zrotation
									JOINT RightHandMiddle2
									{
										OFFSET -3.410492 0.000000 0.000000
										CHANNELS 3 Xrotation Yrotation Zrotation
										JOINT RightHandMiddle3
										{
											OFFSET -3.312172 0.000000 0.000000
											CHANNELS 3 Xrotation Yrotation Zrotation
											End Site
											{
												OFFSET 1.150200 3.080154 0.400270
											}
										}
									}
								}
								JOINT RightHandRing1
								{
									OFFSET -11.514786 -0.013176 -3.003090
									CHANNELS 3 Xrotation Yrotation Zrotation
									JOINT RightHandRing2
									{
										OFFSET -3.053307 0.000000 0.000000
										CHANNELS 3 Xrotation Yrotation Zrotation
										JOINT RightHandRing3
										{
											OFFSET -3.295807 0.000000 0.000000
											CHANNELS 3 Xrotation Yrotation Zrotation
											End Site
											{
												OFFSET 1.281006 3.013344 0.375733
											}
										}
									}
								}
								JOINT RightHandPinky1
								{
									OFFSET -10.518692 -0.960396 -5.730441
									CHANNELS 3 Xrotation Yrotation Zrotation
									JOINT RightHandPinky2
									{
										OFFSET -2.861649 0.000000 0.000000
										CHANNELS 3 Xrotation Yrotation Zrotation
										JOINT RightHandPinky3
										{
											OFFSET -2.863380 0.000000 0.000000
											CHANNELS 3 Xrotation Yrotation Zrotation
											End Site
											{
												OFFSET 0.843597 2.711159 0.369971
											}
										}
									}
								}
							}
							JOINT RSleeve
							{
								OFFSET -6.676277 -0.344902 -1.011730
								CHANNELS 3 Xrotation Yrotation Zrotation
								End Site
								{
									OFFSET 0.000000 14.885353 0.000000
								}
							}
						}
					}
				}
				JOINT Backpack
				{
					OFFSET 0.000000 -2.471497 36.677502
					CHANNELS 3 Xrotation Yrotation Zrotation
					End Site
					{
						OFFSET 0.000000 20.427315 0.000000
					}
				}
				JOINT Hood
				{
					OFFSET 0.000000 18.754097 -10.431000
					CHANNELS 3 Xrotation Yrotation Zrotation
					JOINT Hood1
					{
						OFFSET 0.000000 -5.011002 -7.685901
						CHANNELS 3 Xrotation Yrotation Zrotation
						End Site
						{
							OFFSET 0.000000 9.175140 0.000000
						}
					}
				}
				JOINT LHoodieString
				{
					OFFSET 5.250500 16.397697 3.089900
					CHANNELS 3 Xrotation Yrotation Zrotation
					JOINT LHoodieString1
					{
						OFFSET 0.257700 -6.364304 3.694600
						CHANNELS 3 Xrotation Yrotation Zrotation
						JOINT LHoodieString2
						{
							OFFSET 0.000000 -9.643799 2.679100
							CHANNELS 3 Xrotation Yrotation Zrotation
							End Site
							{
								OFFSET 0.000000 10.009018 0.000000
							}
						}
					}
				}
				JOINT RHoodieString
				{
					OFFSET -5.250500 16.397697 3.089900
					CHANNELS 3 Xrotation Yrotation Zrotation
					JOINT RHoodieString1
					{
						OFFSET -0.257700 -6.364304 3.694600
						CHANNELS 3 Xrotation Yrotation Zrotation
						JOINT RHoodieString2
						{
							OFFSET 0.000000 -9.643799 2.679100
							CHANNELS 3 Xrotation Yrotation Zrotation
							End Site
							{
								OFFSET 0.000000 10.009018 0.000000
							}
						}
					}
				}
			}
			JOINT LBackpack_Strap
			{
				OFFSET 15.223200 -7.719803 -6.610900
				CHANNELS 3 Xrotation Yrotation Zrotation
				End Site
				{
					OFFSET 0.000000 16.040596 0.000000
				}
			}
			JOINT RBackpack_Strap
			{
				OFFSET -15.223000 -7.719803 -6.610900
				CHANNELS 3 Xrotation Yrotation Zrotation
				End Site
				{
					OFFSET 0.000000 16.040596 0.000000
				}
			}
		}
	}
	JOINT BoyFacialAnim_Joint
	{
		OFFSET 1.000000 -82.208099 -1.550900
		CHANNELS 3 Xrotation Yrotation Zrotation
		End Site
		{
			OFFSET 0.000000 30.012791 0.000000
		}
	}
}
MOTION
Frames: 4
Frame Time: 0.016667
-1.995461 80.011475 9.783964 170.198588 -60.473143 167.409753 0.000000 -0.000001 -0.000000 -7.713431 10.670896 18.297279 21.068328 22.602945 2.157333 -5.843639 6.115614 -24.383577 -0.000000 -0.000000 -0.000000 -0.000000 -0.000000 -0.000000 -0.000000 -0.000001 -0.000003 -26.985823 -19.300684 -13.797920 20.042014 -18.042954 1.749736 0.927261 0.303943 5.972424 0.000000 0.000000 -0.000000 0.000000 0.000000 -0.000000 0.000001 -0.000002 -0.000001 10.603317 -1.102333 -0.279854 -2.398480 -2.056338 2.718428 -2.356985 -1.768257 2.869752 -3.888773 19.882595 3.910877 -0.526663 21.441463 -3.837597 -0.000000 -0.000001 0.000000 -0.000000 -0.000001 0.000000 -0.000000 -0.000001 0.000000 0.705977 3.275486 -11.637329 -4.210782 -8.950353 -59.610585 5.910692 -15.225801 -6.974017 -0.347274 0.743002 15.812376 -4.200364 10.157380 11.960015 6.085774 10.556457 -0.157849 0.000004 -0.000001 -0.000000 2.131781 -0.392597 -13.293928 -0.004683 0.197242 -18.934975 0.000001 0.000001 -0.000000 -1.008617 1.345607 -17.617325 0.069226 0.461229 -24.715280 0.000001 0.000000 0.000000 -2.701871 4.172414 -17.242666 -0.035262 0.237672 -29.248595 -0.000002 -0.000000 0.000001 -4.558665 4.536656 -26.611582 0.028880 0.178539 -30.761048 -0.000002 0.000001 -0.000002 -0.000001 0.000001 -0.000001 0.703466 1.524162 16.490406 17.133159 25.354784 44.976236 15.517517 24.279265 -5.951852 -24.526028 1.149792 -17.348496 -0.473541 -9.226568 -6.063030 7.388330 -11.608391 1.218100 -0.000001 0.000001 0.000009 2.309460 -3.333396 8.546099 0.013948 -0.262623 18.590064 -0.000002 0.000001 0.000002 -1.980208 -5.331746 13.722408 0.108075 -0.649760 26.760625 0.000001 -0.000000 0.000003 -4.943415 -9.642936 11.063715 -0.035462 -0.347564 32.710937 -0.000000 0.000000 -0.000001 -6.499143 -10.799791 23.445970 0.059692 -0.257513 34.143276 -0.000000 -0.000002 0.000003 0.000001 0.000001 0.000000 0.000001 -0.000000 0.000000 0.000001 -0.000000 0.000000 0.000001 -0.000000 0.000000 0.000001 -0.000000 0.000000 0.000001 -0.000000 0.000000 0.000001 0.000001 -0.000000 0.000001 -0.000000 0.000000 0.000001 -0.000000 0.000000 0.000001 0.000001 -0.000000 -0.000000 0.000002 -0.000000 -0.000000 0.000002 -0.000000 0.000000 -0.000001 -0.000000 
-1.895201 79.892868 8.567853 170.527776 -58.699780 167.828963 -0.000000 0.000000 -0.000000 -7.545919 10.141768 19.318022 22.010172 24.067886 2.268758 -3.277789 6.062383 -26.921034 0.000000 0.000000 -0.000000 0.000000 0.000000 0.000000 -0.000000 0.000000 -0.000001 -28.681532 -22.791943 -13.590388 21.501400 -13.981765 1.034818 0.208078 1.181377 5.174934 -0.000000 0.000001 0.000000 -0.000000 0.000001 0.000000 -0.000000 0.000001 -0.000000 10.497576 -1.204488 -0.309809 -2.304554 -2.290398 3.051408 -2.253758 -1.967688 3.217100 -4.003678 18.093282 2.764204 -1.209541 19.088005 -2.532617 0.000000 0.000000 0.000000 0.000000 0.000000 0.000000 0.000000 0.000000 0.000000 0.768061 3.463237 -12.577561 -3.044081 -9.903340 -59.428308 7.177365 -16.260071 -6.053576 -3.592285 1.052243 15.956452 -4.274186 10.467623 11.892690 5.839010 10.360576 0.041993 0.000003 -0.000001 -0.000001 2.051715 -0.987335 -14.446069 -0.008069 0.184424 -19.251018 -0.000003 0.000001 -0.000002 -0.876462 0.677744 -18.735054 0.063322 0.418317 -24.711898 -0.000004 -0.000001 -0.000000 -2.394417 3.204068 -18.922862 -0.032560 0.215853 -29.133407 0.000002 0.000000 -0.000002 -4.267619 3.447768 -27.868196 0.025613 0.162051 -30.809826 -0.000001 -0.000000 -0.000000 -0.000001 0.000001 0.000000 0.701266 1.355152 15.823428 16.534496 25.640274 45.312701 15.474306 24.341845 -5.985866 -24.226869 1.766202 -17.288069 -0.475931 -9.284854 -6.057587 7.374046 -11.607319 1.199341 0.000002 -0.000000 0.000000 2.297461 -3.261836 8.600784 0.014293 -0.263307 18.582587 -0.000002 -0.000001 0.000005 -1.979953 -5.246763 13.763549 0.107335 -0.646754 26.717320 -0.000000 -0.000000 -0.000000 -4.937367 -9.523920 11.140125 -0.035764 -0.348102 32.646918 0.000001 -0.000001 0.000000 -6.512577 -10.659442 23.476291 0.059894 -0.258275 34.082876 -0.000001 -0.000001 -0.000002 0.000001 0.000001 -0.000002 0.000000 -0.000001 0.000000 0.000000 -0.000001 0.000000 0.000000 -0.000001 0.000000 0.000000 -0.000001 0.000000 0.000000 -0.000001 0.000000 0.000000 -0.000001 -0.000000 0.000000 -0.000001 0.000000 0.000000 -0.000001 0.000000 0.000000 -0.000001 -0.000000 -0.000000 -0.000002 0.000000 -0.000000 -0.000002 0.000000 -0.000000 0.000000 -0.000000 
-1.785569 79.775551 7.365049 170.990207 -57.042082 168.315409 0.000000 -0.000002 0.000000 -7.709565 10.027725 20.463163 23.438341 25.104258 2.352549 -1.020358 5.750102 -28.755001 0.000000 -0.000001 0.000000 0.000000 -0.000001 0.000000 0.000000 -0.000001 -0.000001 -29.781394 -25.015278 -13.159962 22.978459 -10.999014 0.434187 -0.418309 1.820716 4.732103 -0.000000 0.000000 0.000000 -0.000000 0.000000 0.000000 0.000000 0.000001 -0.000001 10.600291 -1.316248 -0.182652 -2.282223 -2.483316 3.172531 -2.225454 -2.139751 3.353371 -4.312745 16.256598 2.263037 -1.323577 17.025307 -2.023879 -0.000000 0.000000 -0.000000 -0.000000 0.000000 -0.000000 -0.000000 0.000000 -0.000000 0.793944 3.860549 -12.834928 -2.590065 -10.725972 -59.685308 6.796636 -15.986951 -5.978539 -4.516848 0.869632 16.178123 -4.350495 10.787277 11.824426 5.585227 10.158487 0.246098 -0.000001 -0.000001 0.000000 1.949229 -1.594970 -15.631627 -0.011630 0.171268 -19.576155 -0.000001 0.000000 -0.000000 -0.762994 -0.013252 -19.880410 0.057194 0.374166 -24.708061 -0.000002 -0.000001 -0.000000 -2.128880 2.191444 -20.636098 -0.029282 0.193459 -29.015569 0.000001 0.000001 -0.000000 -4.009862 2.316287 -29.144243 0.022214 0.145148 -30.860970 -0.000001 -0.000001 0.000005 -0.000001 -0.000001 0.000001 0.708319 1.125617 15.555419 16.276313 26.099159 45.427633 15.667826 24.549525 -6.236633 -23.970026 2.169559 -17.977328 -0.478570 -9.343086 -6.052157 7.359764 -11.606347 1.180571 -0.000000 0.000001 0.000004 2.285643 -3.191682 8.655813 0.014425 -0.263778 18.575591 -0.000001 -0.000001 0.000002 -1.980057 -5.161919 13.801836 0.106583 -0.643611 26.672594 -0.000001 -0.000000 -0.000000 -4.933543 -9.403517 11.210502 -0.036018 -0.348476 32.579193 -0.000000 0.000001 0.000000 -6.528580 -10.515623 23.497384 0.059948 -0.258747 34.016084 0.000001 0.000000 0.000000 0.000001 0.000001 -0.000002 0.000002 0.000000 0.000000 0.000002 0.000000 0.000000 0.000002 0.000000 0.000000 0.000002 0.000000 0.000000 0.000002 0.000000 -0.000000 0.000001 0.000000 -0.000000 0.000002 0.000000 0.000000 0.000002 0.000000 -0.000000 0.000001 0.000000 -0.000000 0.000000 0.000001 -0.000000 0.000000 0.000001 -0.000000 0.000000 -0.000002 0.000000 
-1.659555 79.656990 6.067240 171.969861 -55.231655 169.115238 0.000000 0.000001 0.000000 -7.629934 10.432604 21.842965 24.784945 25.921113 2.420705 1.233797 5.178468 -30.349799 0.000000 0.000000 -0.000000 0.000000 0.000000 0.000000 -0.000001 0.000000 0.000001 -29.842818 -25.089378 -11.987532 24.551812 -9.555566 0.206748 -1.078793 1.953368 4.406755 0.000000 0.000002 0.000000 0.000000 0.000002 0.000000 0.000000 0.000000 -0.000000 11.005210 -1.354351 0.455439 -2.311408 -2.458901 2.656137 -2.266524 -2.142661 2.841963 -4.723527 14.069390 3.187259 -1.044573 15.252415 -2.299039 0.000000 -0.000000 0.000000 0.000000 -0.000000 0.000000 0.000000 -0.000000 0.000000 0.698519 3.486608 -11.418154 -2.788104 -10.705294 -61.013595 6.324329 -14.736748 -5.900927 -4.856889 0.224937 16.321946 -4.428139 11.111379 11.756500 5.328299 9.952999 0.451393 0.000001 -0.000002 -0.000001 1.824242 -2.206762 -16.833165 -0.015520 0.158004 -19.905613 -0.000002 0.000001 -0.000000 -0.671697 -0.717637 -21.035746 0.051036 0.329371 -24.704149 0.000001 0.000001 0.000000 -1.913179 1.149664 -22.356138 -0.025952 0.170689 -28.896659 0.000001 0.000001 -0.000004 -3.792505 1.158817 -30.419723 0.018529 0.127877 -30.913518 -0.000002 0.000001 0.000002 -0.000002 0.000000 0.000002 0.748271 0.713195 16.348350 16.070858 26.382608 45.353549 15.509614 24.754743 -6.377424 -23.526464 2.543091 -18.509816 -0.481023 -9.401256 -6.046679 7.345465 -11.605470 1.161668 0.000002 -0.000000 0.000001 2.274402 -3.123216 8.711367 0.014466 -0.263994 18.568820 -0.000001 0.000002 -0.000001 -1.980342 -5.077266 13.837582 0.105848 -0.640501 26.625889 -0.000001 -0.000000 -0.000000 -4.930936 -9.281446 11.275151 -0.036174 -0.348602 32.507462 0.000000 -0.000001 0.000000 -6.546904 -10.368718 23.509605 0.059897 -0.258975 33.943339 0.000002 0.000001 -0.000001 0.000000 0.000000 0.000001 0.000000 -0.000000 -0.000000 0.000000 -0.000000 -0.000000 0.000000 -0.000000 -0.000000 0.000000 -0.000000 -0.000000 0.000000 -0.000000 0.000000 -0.000000 -0.000002 0.000001 0.000000 -0.000000 -0.000000 0.000000 -0.000000 0.000000 -0.000000 -0.000002 0.000001 0.000000 -0.000002 0.000000 0.000000 -0.000002 0.000000 0.000000 0.000001 0.000000 
